<?xml version="1.0" encoding="UTF-8" standalone="no"?>
<svg
   viewBox="0 0 640 640"
   version="1.1"
   id="svg1"
   sodipodi:docname="Soc3.svg"
   inkscape:version="1.4.3 (0d15f75, 2025-12-25)"
   xmlns:inkscape="http://www.inkscape.org/namespaces/inkscape"
   xmlns:sodipodi="http://sodipodi.sourceforge.net/DTD/sodipodi-0.dtd"
   xmlns="http://www.w3.org/2000/svg"
   xmlns:svg="http://www.w3.org/2000/svg">
  <defs
     id="defs1" />
  <sodipodi:namedview
     id="namedview1"
     pagecolor="#ffffff"
     bordercolor="#000000"
     borderopacity="0.25"
     inkscape:showpageshadow="2"
     inkscape:pageopacity="0.0"
     inkscape:pagecheckerboard="0"
     inkscape:deskcolor="#d1d1d1"
     inkscape:zoom="1.7296875"
     inkscape:cx="320.28907"
     inkscape:cy="320.57814"
     inkscape:window-width="2560"
     inkscape:window-height="1346"
     inkscape:window-x="-11"
     inkscape:window-y="-11"
     inkscape:window-maximized="1"
     inkscape:current-layer="svg1" />
  <!--!Font Awesome Free 7.1.0 by @fontawesome - https://fontawesome.com License - https://fontawesome.com/license/free Copyright 2025 Fonticons, Inc.-->
  <path
     d="M378 320.2L282.8 266.1L282.8 374.3L378 320.2zM480 96L160 96C124.7 96 96 124.7 96 160L96 480C96 515.3 124.7 544 160 544L480 544C515.3 544 544 515.3 544 480L544 160C544 124.7 515.3 96 480 96zM494.4 232.1C502 260.7 502 320.3 502 320.3C502 320.3 502 379.9 494.4 408.4C490.2 424.2 477.9 436.1 462.2 440.3C433.9 448 320 448 320 448C320 448 206.1 448 177.8 440.4C162.1 436.2 149.8 424.3 145.6 408.5C138 379.9 138 320.3 138 320.3C138 320.3 138 260.6 145.6 232.1C149.8 216.3 162.1 203.9 177.8 199.7C206.1 192 320 192 320 192C320 192 433.9 192 462.2 199.7C477.9 203.9 490.2 216.3 494.4 232.1z"
     id="path1"
     style="fill:#ec861d;fill-opacity:1" />
</svg>
